<svg id="Layer_1" data-name="Layer 1" xmlns="http://www.w3.org/2000/svg" xmlns:xlink="http://www.w3.org/1999/xlink" viewBox="0 0 620.84 400.3"><defs><style>.cls-1,.cls-11,.cls-13,.cls-19,.cls-20,.cls-23,.cls-24,.cls-27,.cls-28,.cls-3,.cls-30,.cls-31,.cls-33,.cls-36,.cls-37,.cls-39,.cls-40,.cls-42,.cls-43,.cls-45,.cls-48,.cls-55,.cls-56,.cls-63,.cls-64,.cls-65,.cls-7{fill:none;}.cls-2{fill:#ffdcea;}.cls-11,.cls-19,.cls-3{stroke:#fff;}.cls-11,.cls-13,.cls-19,.cls-24,.cls-3,.cls-30,.cls-33,.cls-37,.cls-48,.cls-56,.cls-60,.cls-63,.cls-64,.cls-65,.cls-7{stroke-linecap:round;}.cls-23,.cls-24,.cls-27,.cls-28,.cls-3,.cls-30,.cls-31,.cls-33,.cls-36,.cls-37,.cls-39,.cls-40,.cls-42,.cls-43,.cls-45,.cls-48,.cls-55,.cls-7{stroke-miterlimit:10;}.cls-4{clip-path:url(#clip-path);}.cls-5{fill:#ffc0d8;}.cls-6{clip-path:url(#clip-path-2);}.cls-7{stroke:#ffdcea;}.cls-8{clip-path:url(#clip-path-3);}.cls-9{clip-path:url(#clip-path-4);}.cls-10,.cls-18{fill:#b7d1ff;}.cls-11,.cls-13,.cls-19,.cls-20,.cls-56,.cls-60,.cls-63,.cls-64,.cls-65{stroke-linejoin:round;}.cls-12,.cls-50,.cls-60{fill:#fff;}.cls-13,.cls-20,.cls-56,.cls-60{stroke:#6ca0ff;}.cls-13,.cls-65{stroke-width:3px;}.cls-14{clip-path:url(#clip-path-5);}.cls-15{fill:url(#linear-gradient);}.cls-16{fill:url(#linear-gradient-2);}.cls-17{clip-path:url(#clip-path-6);}.cls-18{opacity:0.25;}.cls-18,.cls-49,.cls-50{isolation:isolate;}.cls-19{stroke-width:1.5px;}.cls-21{fill:#00276f;}.cls-22{fill:#f886bc;}.cls-23,.cls-63{stroke:#d34f9b;}.cls-23,.cls-24,.cls-27,.cls-28,.cls-30,.cls-31,.cls-36,.cls-39,.cls-40,.cls-42,.cls-43,.cls-45,.cls-55{stroke-width:0.75px;}.cls-24,.cls-37,.cls-45,.cls-64{stroke:#00276f;}.cls-25{fill:#dd3c91;}.cls-26{fill:#ef8318;}.cls-27,.cls-28,.cls-30,.cls-31{stroke:#af480e;}.cls-28,.cls-39,.cls-43{stroke-dasharray:2 1.5;}.cls-29{fill:#ffab37;}.cls-31{stroke-dasharray:1.99 1.49;}.cls-32{fill:#af480e;}.cls-33{stroke:#2d5491;}.cls-33,.cls-63,.cls-64{stroke-width:0.5px;}.cls-34{fill:#0070e4;}.cls-35{fill:#d34f9b;}.cls-36{stroke:#0e4099;}.cls-38{fill:#00224c;}.cls-39,.cls-40{stroke:#15489b;}.cls-41{fill:#15489b;}.cls-42,.cls-43{stroke:#1b5abf;}.cls-44{fill:#1b5abf;}.cls-46{fill:#0a172b;}.cls-47,.cls-49{fill:#8dade0;}.cls-48{stroke:#8dade0;stroke-width:0.25px;}.cls-49{opacity:0.55;}.cls-50{opacity:0.51;}.cls-51{clip-path:url(#clip-path-7);}.cls-52{fill:url(#linear-gradient-3);}.cls-53{fill:url(#linear-gradient-4);}.cls-54{fill:#6ca0ff;}.cls-55{stroke:#225baf;}.cls-57{fill:#ff5a89;}.cls-58{fill:#d2e4ff;}.cls-59{fill:#ea3974;}.cls-61{fill:#e6effc;}.cls-62{clip-path:url(#clip-path-8);}.cls-65{stroke:#e6effc;}.cls-66{clip-path:url(#clip-path-9);}</style><clipPath id="clip-path" transform="translate(165.78 440.09)"><path class="cls-1" d="M375.84-101.9c28,3.36,50.33,31.37,51.07,49.88H324.77C324.77-78.35,344.83-105.61,375.84-101.9Z"/></clipPath><clipPath id="clip-path-2" transform="translate(165.78 440.09)"><path class="cls-1" d="M-2.95-130C-46.76-124.71-81.59-81-82.76-52H76.86C76.86-93.16,45.5-135.76-2.95-130Z"/></clipPath><clipPath id="clip-path-3" transform="translate(165.78 440.09)"><path class="cls-1" d="M280.52-147.09c53.42,6.39,95.9,59.77,97.32,95H183.2C183.2-102.19,221.43-154.09,280.52-147.09Z"/></clipPath><clipPath id="clip-path-4" transform="translate(165.78 440.09)"><path class="cls-1" d="M-95.09-101.9c-28,3.36-50.33,31.37-51.07,49.88H-44C-44-78.35-64.08-105.61-95.09-101.9Z"/></clipPath><clipPath id="clip-path-5" transform="translate(165.78 440.09)"><rect class="cls-1" x="47.06" y="-402.15" width="195.17" height="350.13" rx="11.13"/></clipPath><linearGradient id="linear-gradient" x1="285.42" y1="889.99" x2="-7.28" y2="597.3" gradientTransform="matrix(1, 0, 0, -1, 165.78, 942.09)" gradientUnits="userSpaceOnUse"><stop offset="0.27" stop-color="#fff" stop-opacity="0.4"/><stop offset="1" stop-color="#fff" stop-opacity="0.2"/></linearGradient><linearGradient id="linear-gradient-2" x1="322.66" y1="883.88" x2="42.19" y2="603.41" xlink:href="#linear-gradient"/><clipPath id="clip-path-6" transform="translate(165.78 440.09)"><rect class="cls-1" x="52.28" y="-377.19" width="184.73" height="288.21"/></clipPath><clipPath id="clip-path-7" transform="translate(165.78 440.09)"><path class="cls-1" d="M319.64-271.48l-5.36-4.68a.7.7,0,0,1-.18-.78l5.66-14.34a.44.44,0,0,1,.55-.3.42.42,0,0,1,.17.1l5.43,4.72a.71.71,0,0,1,.18.78l-5.63,14.27a.53.53,0,0,1-.66.32A.51.51,0,0,1,319.64-271.48Z"/></clipPath><linearGradient id="linear-gradient-3" x1="-333.69" y1="318.16" x2="-323.97" y2="335" gradientTransform="matrix(-0.97, -0.23, -0.23, 0.97, 243.11, -234.21)" gradientUnits="userSpaceOnUse"><stop offset="0" stop-color="#fff" stop-opacity="0.6"/><stop offset="0.89" stop-color="#fff" stop-opacity="0.1"/></linearGradient><linearGradient id="linear-gradient-4" x1="-332.72" y1="316.51" x2="-323.01" y2="333.32" xlink:href="#linear-gradient-3"/><clipPath id="clip-path-8" transform="translate(165.78 440.09)"><circle class="cls-1" cx="-11.13" cy="-364.36" r="12.32"/></clipPath><clipPath id="clip-path-9" transform="translate(165.78 440.09)"><circle class="cls-1" cx="221.46" cy="-329.14" r="12.32" transform="translate(81.98 42.24) rotate(-13.35)"/></clipPath></defs><g id="OBJECTS"><path class="cls-2" d="M318.84-115.45c-1-9.15-1.81-18.38-1.08-27.55s3.26-20.1,8.4-28c3-4.53,13.27-15.11,14.7-3.07.71,5.95-2,11.34-3.94,16.78-1.89,5.21-4.52,10.23-6.16,15.51-2.64,8.45-4.46,17.12-7.38,25.48" transform="translate(165.78 440.09)"/><path class="cls-2" d="M323.21-98.72c7.39-12.5,15.2-24.75,24.94-35,8.12-8.53,18.16-16.37,29.43-20.64,7.6-2.87,29.25-8.88,32.41,3,2.54,9.57-8,16.55-15.05,20.5-10.09,5.66-21,9.74-30.95,15.67-11.52,6.84-22.21,15-34,21.41" transform="translate(165.78 440.09)"/><path class="cls-2" d="M328.25-126.59c4-11.63,7.95-23,14.39-33.5,4.29-7,11.94-19.26,21.36-19.85,6.08-.37,5.74,9,4.77,12.86-1.55,6.3-5.4,11.91-9.66,16.7-10.22,11.5-19.22,22-28,34.59" transform="translate(165.78 440.09)"/><path class="cls-3" d="M361.38-171.81s-19.93,22.26-34.27,60" transform="translate(165.78 440.09)"/><path class="cls-3" d="M396.09-147.52s-30.78,5.22-74,54.87" transform="translate(165.78 440.09)"/><path class="cls-3" d="M335.55-171.57S322-154.22,320-108.66" transform="translate(165.78 440.09)"/><path class="cls-2" d="M11.41-112.68c2-12.54,3.63-25.2,3.19-37.88s-3.23-27.87-9.82-39c-3.81-6.43-17.33-21.63-20-5.15-1.35,8.15,2,15.74,4.38,23.35,2.28,7.29,5.58,14.36,7.52,21.74,3.1,11.78,5.07,23.84,8.58,35.53" transform="translate(165.78 440.09)"/><path class="cls-2" d="M4.78-106.21C1.5-121.93-2.29-137.54-8.84-151.72c-5.45-11.83-13.16-23.62-23.43-32.11-6.93-5.73-27.45-19.74-35-8.48-6.09,9.11,2.47,20.18,8.43,26.83C-50.3-155.95-40.37-147.8-32-138c9.62,11.28,17.88,23.67,28,34.56" transform="translate(165.78 440.09)"/><path class="cls-2" d="M-20-114.7a146.38,146.38,0,0,0-29.34-27.39c-3.7-2.62-22.61-15.44-22.56-2.95,0,8.57,10.28,13.5,16.6,16.82,13,6.85,27.12,11.77,39.24,20.11" transform="translate(165.78 440.09)"/><path class="cls-3" d="M-65.88-142.79s26.1,11.6,53.42,38.92" transform="translate(165.78 440.09)"/><path class="cls-3" d="M-54.08-183.3s30.35,16.44,57.9,83.85" transform="translate(165.78 440.09)"/><path class="cls-3" d="M-8.11-191S9.43-166.26,9.43-103.41" transform="translate(165.78 440.09)"/><path class="cls-2" d="M375.84-101.9c28,3.36,50.33,31.37,51.07,49.88H324.77C324.77-78.35,344.83-105.61,375.84-101.9Z" transform="translate(165.78 440.09)"/><g class="cls-4"><line class="cls-3" x1="535.36" y1="334.21" x2="539.09" y2="392.71"/><line class="cls-3" x1="536.71" y1="355.41" x2="546.59" y2="336.46"/><line class="cls-3" x1="525.53" y1="391.36" x2="501.1" y2="349.33"/><line class="cls-3" x1="519.65" y1="338.64" x2="516.32" y2="375.51"/><line class="cls-3" x1="517.49" y1="394.22" x2="491.89" y2="372.85"/><line class="cls-3" x1="501.4" y1="380.79" x2="490.33" y2="379.36"/><line class="cls-3" x1="572.35" y1="347.3" x2="541.91" y2="390.52"/><line class="cls-3" x1="555.23" y1="339.78" x2="559.51" y2="365.53"/><line class="cls-3" x1="591.38" y1="369.56" x2="558.16" y2="391.36"/><line class="cls-3" x1="584.08" y1="359.46" x2="554.35" y2="372.85"/><line class="cls-3" x1="578.57" y1="377.97" x2="596.63" y2="380.79"/></g><path class="cls-5" d="M-2.95-130C-46.76-124.71-81.59-81-82.76-52H76.86C76.86-93.16,45.5-135.76-2.95-130Z" transform="translate(165.78 440.09)"/><g class="cls-6"><line class="cls-7" x1="172.6" y1="303.91" x2="166.78" y2="395.32"/><line class="cls-7" x1="169.69" y1="348.83" x2="140.02" y2="312.93"/><line class="cls-7" x1="187.97" y1="393.21" x2="226.15" y2="327.53"/><line class="cls-7" x1="197.15" y1="310.83" x2="202.37" y2="368.45"/><line class="cls-7" x1="200.54" y1="397.69" x2="240.54" y2="364.28"/><line class="cls-7" x1="225.68" y1="376.69" x2="242.97" y2="374.47"/><line class="cls-7" x1="170.52" y1="336.55" x2="189.97" y2="303.91"/><line class="cls-7" x1="118.68" y1="317.78" x2="163.96" y2="391.21"/><line class="cls-7" x1="100.9" y1="336.68" x2="148.76" y2="366.56"/><line class="cls-7" x1="91.38" y1="352.84" x2="136.98" y2="393.21"/><line class="cls-7" x1="83.02" y1="370.49" x2="117.06" y2="375.58"/></g><path class="cls-5" d="M280.52-147.09c53.42,6.39,95.9,59.77,97.32,95H183.2C183.2-102.19,221.43-154.09,280.52-147.09Z" transform="translate(165.78 440.09)"/><g class="cls-8"><line class="cls-7" x1="434.38" y1="285.44" x2="441.48" y2="396.91"/><line class="cls-7" x1="437.93" y1="340.22" x2="474.11" y2="296.44"/><line class="cls-7" x1="415.63" y1="394.34" x2="369.08" y2="314.25"/><line class="cls-7" x1="404.44" y1="293.88" x2="398.08" y2="364.14"/><line class="cls-7" x1="400.32" y1="399.8" x2="351.53" y2="359.06"/><line class="cls-7" x1="369.65" y1="374.2" x2="348.57" y2="371.48"/><line class="cls-7" x1="436.91" y1="325.24" x2="413.19" y2="285.44"/><line class="cls-7" x1="500.14" y1="302.35" x2="444.92" y2="391.89"/><line class="cls-7" x1="513.26" y1="314.25" x2="476.2" y2="341.18"/><line class="cls-7" x1="533.43" y1="345.12" x2="477.82" y2="394.34"/><line class="cls-7" x1="509.27" y1="366.5" x2="521.81" y2="333.22"/><line class="cls-7" x1="493.04" y1="380.86" x2="548.34" y2="369.05"/></g><path class="cls-2" d="M-95.09-101.9c-28,3.36-50.33,31.37-51.07,49.88H-44C-44-78.35-64.08-105.61-95.09-101.9Z" transform="translate(165.78 440.09)"/><g class="cls-9"><line class="cls-3" x1="76.95" y1="334.21" x2="73.22" y2="392.71"/><line class="cls-3" x1="75.08" y1="362.96" x2="65.73" y2="336.46"/><line class="cls-3" x1="86.78" y1="391.36" x2="111.22" y2="349.33"/><line class="cls-3" x1="92.66" y1="338.64" x2="96" y2="375.51"/><line class="cls-3" x1="94.82" y1="394.22" x2="120.43" y2="372.85"/><line class="cls-3" x1="110.92" y1="380.79" x2="121.98" y2="379.36"/><line class="cls-3" x1="75.62" y1="355.1" x2="88.07" y2="334.21"/><line class="cls-3" x1="39.97" y1="347.3" x2="65.73" y2="391.36"/><line class="cls-3" x1="57.08" y1="339.78" x2="56.46" y2="375.51"/><line class="cls-3" x1="24.97" y1="365.53" x2="54.15" y2="391.36"/><line class="cls-3" x1="19.62" y1="376.82" x2="41.4" y2="380.08"/></g><rect class="cls-10" x="212.84" y="37.94" width="195.17" height="350.13" rx="11.13"/><path class="cls-11" d="M151.64-70.55a7,7,0,0,1-7,7,7,7,0,0,1-7-7,7,7,0,0,1,7-7A7,7,0,0,1,151.64-70.55Z" transform="translate(165.78 440.09)"/><rect class="cls-12" x="218.06" y="62.9" width="184.73" height="288.21"/><line class="cls-13" x1="293.65" y1="49.65" x2="327.19" y2="49.65"/><line class="cls-13" x1="281.22" y1="49.65" x2="287.41" y2="49.65"/><g class="cls-14"><polygon class="cls-15" points="356.65 0 210.6 396.89 253.05 396.89 399.1 0 356.65 0"/><polygon class="cls-16" points="412.23 0 266.18 396.89 284.18 396.89 430.23 0 412.23 0"/></g><g class="cls-17"><path class="cls-18" d="M87.33-382.5H1.41a26.67,26.67,0,0,0-26.68,26.66v0h0A26.67,26.67,0,0,0,1.34-329.09H9.07l4.8,6.21,4.77-6.21H87.29A26.69,26.69,0,0,0,114-355.77h0A26.69,26.69,0,0,0,87.34-382.5Z" transform="translate(165.78 440.09)"/><path class="cls-18" d="M140.53-342.37h85.91a26.69,26.69,0,0,1,26.69,26.67h0A26.69,26.69,0,0,1,226.44-289h-3.66L218-282.8l-4.8-6.21H140.53a26.69,26.69,0,0,1-26.69-26.68h0a26.69,26.69,0,0,1,26.68-26.68Z" transform="translate(165.78 440.09)"/><path class="cls-18" d="M178.29-249.39H89.37a26.69,26.69,0,0,0-26.68,26.68h0A26.7,26.7,0,0,0,89.37-196H97l4.81,6.21,4.8-6.21h71.65A26.69,26.69,0,0,0,205-222.71h0a26.67,26.67,0,0,0-26.66-26.68Z" transform="translate(165.78 440.09)"/><line class="cls-19" x1="243.37" y1="203.66" x2="353.67" y2="203.66"/><line class="cls-19" x1="275.1" y1="212.8" x2="353.67" y2="212.8"/><line class="cls-19" x1="243.37" y1="212.8" x2="265.55" y2="212.8"/><line class="cls-19" x1="327.22" y1="221.95" x2="353.67" y2="221.95"/><line class="cls-19" x1="243.37" y1="221.95" x2="317.02" y2="221.95"/><line class="cls-19" x1="243.37" y1="231.09" x2="300.15" y2="231.09"/><path class="cls-18" d="M114.5-164.23h88.91a26.69,26.69,0,0,1,26.69,26.67h0a26.69,26.69,0,0,1-26.68,26.68h-7.67l-4.8,6.21-4.8-6.21H114.5a26.69,26.69,0,0,1-26.69-26.67h0a26.69,26.69,0,0,1,26.68-26.68Z" transform="translate(165.78 440.09)"/><line class="cls-19" x1="268.49" y1="288.82" x2="378.79" y2="288.82"/><line class="cls-19" x1="317.82" y1="297.97" x2="378.79" y2="297.97"/><line class="cls-19" x1="268.49" y1="297.97" x2="309.45" y2="297.97"/><line class="cls-19" x1="358.66" y1="307.11" x2="378.79" y2="307.11"/><line class="cls-19" x1="268.49" y1="307.11" x2="348.46" y2="307.11"/><line class="cls-19" x1="268.49" y1="316.26" x2="337.63" y2="316.26"/></g><line class="cls-20" y1="388.07" x2="620.84" y2="388.07"/><path class="cls-21" d="M23.9-311.66a6.13,6.13,0,0,0-3.07-2.7,4.24,4.24,0,0,0-1.18-.14,9.08,9.08,0,0,0-4.56,1.16,4.45,4.45,0,0,0-1.08.8,1.49,1.49,0,0,0-.47,1.24,7.36,7.36,0,0,1,0,1.15,12.79,12.79,0,0,1-.3,1.75,10.25,10.25,0,0,0,0,4.61,3,3,0,0,1-.09,1.78,4.33,4.33,0,0,1-.94,1.23,7.83,7.83,0,0,0-1.73,2.56,4.33,4.33,0,0,0-.09,3.09,13.19,13.19,0,0,0,.77,1.45,5.45,5.45,0,0,1,.28,4.08.55.55,0,0,0,.39.67h0a28.62,28.62,0,0,0,8.31.49,15.19,15.19,0,0,0,8.3-3.36" transform="translate(165.78 440.09)"/><path class="cls-22" d="M14.92-314.71c-1.16,5.25-.28,19.43,3.65,21.19s8.89-2.18,10.37-4c2.16-2.59,6.24-13.56,2.58-17S16.54-322.09,14.92-314.71Z" transform="translate(165.78 440.09)"/><path class="cls-22" d="M23.87-296.71l2.87,10.42-1.1,2.82s-.76,5.62.17,5.9c3.73,1.15,11.94-10.32,11.94-10.32l-6.57-15" transform="translate(165.78 440.09)"/><path class="cls-21" d="M34.26-313.84c-1.13-5-7.37-8.13-12.74-7.3-4.41-1.27-13,3.37-9.13,12.48,0,0,3.4-3.14,7.75-7.31,2.75,8.63,13.2,13,13.2,13A18.07,18.07,0,0,0,34.26-313.84Z" transform="translate(165.78 440.09)"/><path class="cls-21" d="M20.26-320.87c4-5.28,13.49-1.84,16,.82,2.82,3,3.94,6,7.2,8,1.5.93,3.38,1.52,4.21,3.08,1.15,2.15-.25,5.16,1.26,7.07.63.8,3.7,3.26,3.7,7.25-3.35,2.28-6.06,1.54-9.77,3-2.69,1.09-6.4,2.86-9.43,3.37a.56.56,0,0,1-.63-.48.66.66,0,0,1,0-.14c.15-1.3.39-2.93-.17-3.94a13.89,13.89,0,0,0-1.11-1.42,5.8,5.8,0,0,1-.51-4.26,9.36,9.36,0,0,0,.13-4.37,6.8,6.8,0,0,0-2.5-3.13" transform="translate(165.78 440.09)"/><path class="cls-21" d="M30.4-321.58c-.76.08-1.3-.72-1.58-1.44a4.44,4.44,0,0,1-.28-3c.75-2.25,3.74-2.39,5.46-1.26,1.48,1,2.56,3.16,1.36,4.76-.84,1.12-2.57,1.36-3.85,1.61" transform="translate(165.78 440.09)"/><path class="cls-22" d="M28.64-304.22a.7.7,0,0,1,.37-.45c.76-.52,1.7-1.06,2.54-.7a1.88,1.88,0,0,1,.94,1,4.58,4.58,0,0,1-.71,4.67c-1,1.09-3.66,1.84-4.11-.17" transform="translate(165.78 440.09)"/><path class="cls-23" d="M18.64-305.78s-2.57,4.49-1.76,5.3,2.46.32,2.46.32" transform="translate(165.78 440.09)"/><path class="cls-21" d="M21.86-305.94a4.26,4.26,0,0,0,.16,1,.6.6,0,0,0,.7.48.57.57,0,0,0,.3-.15c.66-.45.07-2.21-.79-1.85A.54.54,0,0,0,21.86-305.94Z" transform="translate(165.78 440.09)"/><path class="cls-21" d="M15.22-305.94a4.26,4.26,0,0,0,.16,1,.6.6,0,0,0,.7.48.57.57,0,0,0,.3-.15c.66-.45.07-2.21-.8-1.85A.55.55,0,0,0,15.22-305.94Z" transform="translate(165.78 440.09)"/><path class="cls-24" d="M20.09-307.77s1.61-2,4.37,0" transform="translate(165.78 440.09)"/><path class="cls-24" d="M15-307.64a1.84,1.84,0,0,1,2.58-.22l.1.09" transform="translate(165.78 440.09)"/><path class="cls-12" d="M18.06-297.94l5-1.21s-.89,3-3.37,3C18.49-296.09,18.06-297.94,18.06-297.94Z" transform="translate(165.78 440.09)"/><path class="cls-23" d="M24.7-293.7a8.59,8.59,0,0,0,4.67-3.94" transform="translate(165.78 440.09)"/><path class="cls-25" d="M-18.57-262.43s-.8,2.18.57,5.91c1.77,4.82,20.81,34.61,32.9,35.71s24.26-35.14,24.26-46.29S29.32-281.59,23-273.54s-13.58,36-13.58,36Z" transform="translate(165.78 440.09)"/><path class="cls-25" d="M-6.11-252.66a24.67,24.67,0,0,0-3.29-5.78c-.55-.75-2.45-3.4-3.54-2.89-.74.36,0,2.34.34,2.9A11.67,11.67,0,0,0-11-256.27" transform="translate(165.78 440.09)"/><path class="cls-22" d="M-6.19-79.36-11-56.09S-30.08-44.86-30.08-44.62s18.19.9,18.19.9l8.05-3.94H4a1.44,1.44,0,0,0,1.44-1.42,1.86,1.86,0,0,0,0-.33L3.78-56.59l8.52-24.5" transform="translate(165.78 440.09)"/><path class="cls-21" d="M-28.77-47.29c2.86-1.66,13.61-7,13.61-7L-3.9-47.67H5.82v5.61H-3.9V-46.3H-5.14a2,2,0,0,0-1.2.41l-4.25,3.28a2.65,2.65,0,0,1-1.6.55H-30.08C-32.59-42-33.15-44.74-28.77-47.29Z" transform="translate(165.78 440.09)"/><polygon class="cls-21" points="165.93 393.51 170.55 387.28 170.01 384.9 164.53 392.47 165.93 393.51"/><path class="cls-26" d="M59.64-234.92S74.31-211.76,58-188.36c-6.59,9.45-28.77,48.92-28.77,48.92L17-68.55H-15.36S-5-138.77-.36-151.44s33.82-72.12,33.82-72.12v-9.2" transform="translate(165.78 440.09)"/><path class="cls-27" d="M45.2-189.77C38.61-180.31,19-139.44,19-139.44L6.78-68.55" transform="translate(165.78 440.09)"/><path class="cls-28" d="M47.64-189.77c-6.6,9.46-26.19,50.33-26.19,50.33L9.22-68.55" transform="translate(165.78 440.09)"/><path class="cls-22" d="M40.83-96.48,57.26-79.94S48.18-60,48.31-59.86s15.2-9.57,15.2-9.57l4.28-7.73,6.35-4.45a1.41,1.41,0,0,0,.34-2,1.43,1.43,0,0,0-.2-.23l-5.39-4.87-14.1-19.64" transform="translate(165.78 440.09)"/><path class="cls-21" d="M47.85-62.77c1.37-3,7-13.34,7-13.34l12.84-1,7.85-5.5,3.17,4.53-7.85,5.5L68.52-76l-1,.7a2,2,0,0,0-.74,1l-1.58,5a2.6,2.6,0,0,1-1,1.35L49.76-57.79C47.74-56.37,45.76-58.24,47.85-62.77Z" transform="translate(165.78 440.09)"/><polygon class="cls-21" points="237.39 361.52 237.6 353.88 235.82 352.27 235.67 361.48 237.39 361.52"/><path class="cls-29" d="M32-233l-1.18,9.4S-8-176-8-155.91c0,19.59,43.8,68.49,43.8,68.49l24.53-18.67L28.42-151.73s31.17-38,36.55-43.36c9-9,8.39-24.33-3-39.83" transform="translate(165.78 440.09)"/><path class="cls-27" d="M31.21-226.88s17.24,1.78,33.61-3.84" transform="translate(165.78 440.09)"/><line class="cls-30" x1="204.29" y1="213.48" x2="204.29" y2="207.93"/><line class="cls-27" x1="225.87" y1="210.79" x2="223.97" y2="205.66"/><path class="cls-27" d="M54.21-101.45l-32-46.13a7,7,0,0,1,.16-8.19c7.49-9.86,26.27-34.71,30.27-39.32,8.27-9.68,9.14-21.06,2.9-33.17" transform="translate(165.78 440.09)"/><line class="cls-27" x1="220.48" y1="334.68" x2="219.91" y2="333.86"/><path class="cls-31" d="M53.28-107.45,24.57-148.83a4.9,4.9,0,0,1,.11-5.72c6.67-8.83,27-35.72,31.12-40.54,7.92-9.26,8.58-20.46,3.16-32" transform="translate(165.78 440.09)"/><path class="cls-27" d="M58.64-227.77l-.45-.9" transform="translate(165.78 440.09)"/><path class="cls-27" d="M48-227.09s1.08,3.87,4.2,5.37a42.12,42.12,0,0,0,6.64,2.41" transform="translate(165.78 440.09)"/><path class="cls-27" d="M66.39-216.84a21,21,0,0,0,4-.87" transform="translate(165.78 440.09)"/><path class="cls-27" d="M66.39-214.92a18.87,18.87,0,0,0,4.35-.81" transform="translate(165.78 440.09)"/><polygon class="cls-32" points="197.84 348.4 202.27 354.61 227.61 334.75 222.8 329.29 197.84 348.4"/><polygon class="cls-32" points="149.83 371.54 151.47 364.56 183.96 364.56 183.96 371.54 149.83 371.54"/><path class="cls-21" d="M-3.21-250a.37.37,0,0,1,0,.52l-.86.87a.36.36,0,0,1-.51,0h0l-17-16.74a.37.37,0,0,1,0-.52l.86-.87a.37.37,0,0,1,.52,0" transform="translate(165.78 440.09)"/><line class="cls-33" x1="146.41" y1="175.54" x2="147.78" y2="176.89"/><line class="cls-33" x1="148.32" y1="177.45" x2="148.53" y2="177.66"/><path class="cls-34" d="M57.12-273.36a27.69,27.69,0,0,0-19.59-14.95S27-279.7,25.6-283.47c-1.53,2.27-11.29,19.21-10,27.88s8.83,9.87,10.33,11.75,5.05,13.92,5.52,14.75c15.12-.29,30.51-5.83,30.51-5.83S63.91-259.38,57.12-273.36Z" transform="translate(165.78 440.09)"/><path class="cls-22" d="M52.15-270c-2.66-10.12-11.13-15.5-18.59-12.81-6.43,2.31-7.73,9.81-5.89,19.69s1.4,23.21,1.4,23.21-23.23-8.59-27.6-10.33C-3-254-8.53-258-9.47-258s-.48,1.56.8,2.84S-5.19-251.9-7-252c-1.36-.12-10.21-9-10.21-9-.74.74.14,2.81.14,2.81a11.56,11.56,0,0,0,2.91,6.56c19.23,21.86,41.88,37.09,56.2,31.87C55.52-224.74,53.09-266.36,52.15-270Z" transform="translate(165.78 440.09)"/><path class="cls-35" d="M-10.46-251a16.89,16.89,0,0,1-3.78-3.22,17.38,17.38,0,0,1-2.82-4.08c1.2,1.16,2.28,2.38,3.38,3.58S-11.5-252.26-10.46-251Z" transform="translate(165.78 440.09)"/><path class="cls-34" d="M54-268.3C52.2-279.44,43.69-286.11,35.4-284c-7.14,1.8-9.34,9.7-8.4,20.49.27,3.16.55,6.65.79,10L54-250.44A122.38,122.38,0,0,0,54-268.3Z" transform="translate(165.78 440.09)"/><path class="cls-36" d="M54-250.45a123.66,123.66,0,0,0,0-17.85C52.19-279.44,43.68-286.11,35.39-284c-7.14,1.8-9.34,9.7-8.4,20.49.27,3.16.55,6.65.79,10" transform="translate(165.78 440.09)"/><path class="cls-21" d="M235.89-81.09l2.12-1,13,27.57a4.22,4.22,0,0,0,3.39,2.4l.15.21-3.4,1.6a.58.58,0,0,1-.41,0h-.12a3.25,3.25,0,0,1-1.93-1.7L235.53-80A.8.8,0,0,1,235.89-81.09Z" transform="translate(165.78 440.09)"/><path class="cls-22" d="M272.46-114.68l-24,28.9-8.82,5.24L252.12-54a1.78,1.78,0,0,0,2.35.85h0a1.79,1.79,0,0,0,1-1.73l-1.28-17.6,26.33-21.59" transform="translate(165.78 440.09)"/><path class="cls-29" d="M255.41-73.84,256-54a2.21,2.21,0,0,1-1.33,2h0a2.44,2.44,0,0,1-3-1.17L238-82.15,248.77-86S247.73-79.3,255.41-73.84Z" transform="translate(165.78 440.09)"/><path class="cls-37" d="M256.33-70a21.56,21.56,0,0,0-5-.52" transform="translate(165.78 440.09)"/><path class="cls-37" d="M256.05-67.32a19.27,19.27,0,0,0-4.22-.37" transform="translate(165.78 440.09)"/><path class="cls-37" d="M256-65.09a27.78,27.78,0,0,0-3.86-.32" transform="translate(165.78 440.09)"/><path class="cls-38" d="M285.12-216l3.45,8a19.64,19.64,0,0,0,4.89,6.8c9.45,8.48,33.34,41.86,33.6,55.93.31,17-51.9,71.79-51.9,71.79L254.78-96.33l41-49-35.64-34s-16.27-5.73-9.71-34.86" transform="translate(165.78 440.09)"/><path class="cls-39" d="M260.78-96.47l38.42-47.75a3.63,3.63,0,0,0-.24-5.13l-.17-.14-32.66-32.79s-16.28-6-9.74-36.2" transform="translate(165.78 440.09)"/><path class="cls-40" d="M260.64-92.95l40.79-50.14a5.17,5.17,0,0,0-.35-7.3l-.23-.2s-34.84-34.18-35-34.23c-1.73-.75-12.34-6.81-6.2-35.2" transform="translate(165.78 440.09)"/><polygon class="cls-41" points="424.2 339.55 417.47 345.79 439.5 368.57 445.69 362.02 424.2 339.55"/><path class="cls-21" d="M300.77-42.86V-45.2h30.47a4.21,4.21,0,0,0,3.61-2l.26,0v3.76a.58.58,0,0,1-.15.38l-.09.1a3.28,3.28,0,0,1-2.36,1H301.64a.83.83,0,0,1-.87-.79Z" transform="translate(165.78 440.09)"/><path class="cls-22" d="M289.3-85.65l12.58,29.46,1,10.18h29.31A1.76,1.76,0,0,0,334-47.77h0a1.75,1.75,0,0,0-1.13-1.64l-16.47-6.35-8.37-33" transform="translate(165.78 440.09)"/><path class="cls-29" d="M315.64-57.43l18.2,8a2.24,2.24,0,0,1,1.25,2.06h0a2.43,2.43,0,0,1-2.34,2.21h-32l1.07-11.39S307.44-52.81,315.64-57.43Z" transform="translate(165.78 440.09)"/><path class="cls-37" d="M319.54-56.62a21.49,21.49,0,0,0-2.6,4.31" transform="translate(165.78 440.09)"/><path class="cls-37" d="M321.83-55.23a18.36,18.36,0,0,0-2.14,3.66" transform="translate(165.78 440.09)"/><path class="cls-37" d="M323.76-54.22a25.41,25.41,0,0,0-1.93,3.36" transform="translate(165.78 440.09)"/><path class="cls-21" d="M238.72-210.59s-1.28,18,6.65,35,40,115.73,40,115.73l28.42-12.23-34.5-117.5a174.56,174.56,0,0,0-7.06-34" transform="translate(165.78 440.09)"/><path class="cls-42" d="M293.32-63.28,253.89-175.76s-8-14-8-24.66" transform="translate(165.78 440.09)"/><path class="cls-43" d="M291.1-62.33,250.71-175.76s-8-14-8-24.66" transform="translate(165.78 440.09)"/><polygon class="cls-44" points="448.67 372.69 451.41 381.5 480.41 369.83 477.73 361.72 448.67 372.69"/><path class="cls-42" d="M248.16-187.91a20.9,20.9,0,0,0,10.15-13.2" transform="translate(165.78 440.09)"/><path class="cls-45" d="M279.37-186.48s3.21-3.68,2.9-6.69c-.85-8.29-2.9-18.8-2.9-18.8" transform="translate(165.78 440.09)"/><path class="cls-22" d="M319.37-264l-7.12-7.23s6.66-16.73,7.41-16.57c1.53.33-1.22,7.44-1.22,7.44s3.9-7.61,4.45-7.11c1,.9-1.83,8.69-1.83,8.69s3.4-7.53,4.07-6.74S322.69-273,322.69-273Z" transform="translate(165.78 440.09)"/><path class="cls-22" d="M310.89-270.41l1.33-2.58a37.81,37.81,0,0,1,1.54-7.6c1.13-3.21,2-4.76,2.56-4.76s0,5,0,5,1,4.3-.46,7.09" transform="translate(165.78 440.09)"/><path class="cls-46" d="M319.79-271.39l-5-4.63a.7.7,0,0,1-.18-.78l5.63-14.78.44.11a.61.61,0,0,1,.32.13l5.42,4.73a.7.7,0,0,1,.18.78L321-271.56a.52.52,0,0,1-.45.34Z" transform="translate(165.78 440.09)"/><path class="cls-21" d="M319.64-271.48l-5.36-4.68a.7.7,0,0,1-.18-.78l5.66-14.34a.44.44,0,0,1,.55-.3.42.42,0,0,1,.17.1l5.43,4.72a.71.71,0,0,1,.18.78l-5.63,14.27a.53.53,0,0,1-.66.32A.51.51,0,0,1,319.64-271.48Z" transform="translate(165.78 440.09)"/><polygon class="cls-47" points="480.27 162.12 486.54 167.59 491.47 155.1 485.2 149.64 480.27 162.12"/><path class="cls-47" d="M317.29-274.63a.23.23,0,0,1-.35.2.5.5,0,0,1-.18-.5.24.24,0,0,1,.36-.21A.48.48,0,0,1,317.29-274.63Z" transform="translate(165.78 440.09)"/><line class="cls-48" x1="487.99" y1="151.02" x2="489.08" y2="151.99"/><path class="cls-49" d="M319-286.63a.22.22,0,0,1-.33.2.45.45,0,0,1-.17-.48.23.23,0,0,1,.34-.2A.44.44,0,0,1,319-286.63Z" transform="translate(165.78 440.09)"/><path class="cls-50" d="M324.09-284.55l-3.3-2.88a.67.67,0,0,0-.94.07.71.71,0,0,0-.13.22l-.4,1.05L319-286l4,3.5a.66.66,0,0,0,.93-.06.76.76,0,0,0,.13-.23l.26-.64A1,1,0,0,0,324.09-284.55Z" transform="translate(165.78 440.09)"/><line class="cls-48" x1="486.14" y1="153.36" x2="489.47" y2="156.25"/><line class="cls-48" x1="485.84" y1="154.15" x2="487.75" y2="155.81"/><path class="cls-49" d="M315.78-279a.23.23,0,0,1-.34.19.45.45,0,0,1-.17-.48.23.23,0,0,1,.34-.2A.46.46,0,0,1,315.78-279Z" transform="translate(165.78 440.09)"/><path class="cls-50" d="M320.87-276.88l-3.3-2.88a.66.66,0,0,0-.93.06.76.76,0,0,0-.13.23l-.41,1-.33.05,4,3.51a.68.68,0,0,0,1-.09.78.78,0,0,0,.11-.2l.25-.64A1,1,0,0,0,320.87-276.88Z" transform="translate(165.78 440.09)"/><line class="cls-48" x1="482.93" y1="161.02" x2="486.26" y2="163.92"/><line class="cls-48" x1="482.62" y1="161.82" x2="484.53" y2="163.48"/><path class="cls-49" d="M322.78-278.45a.23.23,0,0,1-.34.2.44.44,0,0,1-.16-.48.22.22,0,0,1,.33-.2A.45.45,0,0,1,322.78-278.45Z" transform="translate(165.78 440.09)"/><path class="cls-50" d="M322.17-281.09l-3.53-3.1a.55.55,0,0,0-.78.06.52.52,0,0,0-.1.18l-.39,1a.68.68,0,0,0,.18.77l4.4,3.81-.12-.53.56-1.4A.69.69,0,0,0,322.17-281.09Z" transform="translate(165.78 440.09)"/><line class="cls-48" x1="484.07" y1="156.7" x2="487.4" y2="159.59"/><line class="cls-48" x1="483.77" y1="157.49" x2="485.68" y2="159.15"/><line class="cls-48" x1="485.96" y1="159.42" x2="486.7" y2="160.06"/><g class="cls-51"><polygon class="cls-52" points="491.6 151.25 492.84 152.48 480.3 167.31 479.06 166.09 491.6 151.25"/><polygon class="cls-53" points="491.5 149.87 491.81 150.18 479.27 165.02 478.96 164.71 491.5 149.87"/></g><path class="cls-22" d="M290-260.59l7,11.29L312.19-273s10.82,1,9.58,6.37c-6,15.18-10.91,38.25-22.74,39.42-13,1.28-29.54-23-29.54-23" transform="translate(165.78 440.09)"/><path class="cls-23" d="M297.05-249.3a48.31,48.31,0,0,0-5.41,10.77" transform="translate(165.78 440.09)"/><path class="cls-22" d="M320.57-263.6s4.36-10.63,4.9-12.65,1.92-7.59,1-7.59-3,5.34-3.23,6.23c-1.79,1-4.31,2.67-4.28,5.76" transform="translate(165.78 440.09)"/><path class="cls-54" d="M262.79-290.45s14.85,1.36,31.21,34.56c-3.21,4.67-19.87,14.53-24.48,14.44-5-7.29-9.68-26-9.68-26" transform="translate(165.78 440.09)"/><path class="cls-54" d="M277.43-261.33c-4.61-18.21-11.55-27-11.55-27l-15.24-4.33-12.32,15.3c-12.39,37.64-.55,79-.55,79,8.54,3.64,43.89-3.77,52.51-12.39C290.3-210.72,281.32-246,277.43-261.33Z" transform="translate(165.78 440.09)"/><path class="cls-55" d="M281.21-246.26s-6.46-28.68-9.77-34.09" transform="translate(165.78 440.09)"/><path class="cls-22" d="M223.47-264S216-244,218-232.16c3,18.07,32.14,35.33,32.14,35.33s-1,4.86,1.07,7.17a20.39,20.39,0,0,0,6.77-8.47l-2.44-4s-16-25.12-15.49-33.4c.33-5.85,9.4-34.9,9.4-34.9" transform="translate(165.78 440.09)"/><path class="cls-54" d="M250.64-292.66s-16.17,4.53-23,16.8c-8.3,14.86-9.94,27.51-9.94,27.51,7.08,7.08,21.35,10.15,29.18,8.52l5.58-28.44" transform="translate(165.78 440.09)"/><line class="cls-55" x1="412.65" y1="200.26" x2="417.79" y2="174.06"/><path class="cls-22" d="M267.42-300.9l-8.21-14.19-6.44,11.37.43,2.61-2.54,8.5c2.54,7.53,13,8.38,15.22,4.37l1.54-12.61" transform="translate(165.78 440.09)"/><path class="cls-22" d="M274.64-320c1.34,5.06,1.7,22.27-2.37,24.09s-12.28.08-14.68-3c-2.08-2.67-4-17-.3-20.47S272.78-327.09,274.64-320Z" transform="translate(165.78 440.09)"/><path class="cls-21" d="M262.24-316.67c3.82.65,7.15-.41,10.13-1.37a12.2,12.2,0,0,0,7.2-5.62c1.2-2.31,1.28-5.57-1.65-6.84a4.78,4.78,0,0,0-2.24-.37c-2.44.17-4.37,1.65-6.23,3.1.77-3.84-6.48-2.08-8-.7a9.57,9.57,0,0,1-1.36,1.34c-1.72,1-3.91,1.09-5.73,1.89a8.64,8.64,0,0,0-4.72,5.35c-.59,2-1.33,5.25.28,7.62a9.48,9.48,0,0,1,1.72,3.71l1.28,5.47s2.57-1.84,2.85-2.06A16.76,16.76,0,0,0,258-308,28.13,28.13,0,0,0,262.24-316.67Z" transform="translate(165.78 440.09)"/><path class="cls-22" d="M259.71-309.26c-.49-.9-1.14-1.91-2.09-2a1.73,1.73,0,0,0-1.31.52,4.86,4.86,0,0,0-.05,6.82c.8.73,1.91,1.07,2.65.06l1-4.77A.84.84,0,0,0,259.71-309.26Z" transform="translate(165.78 440.09)"/><path class="cls-23" d="M266.72-294.94s-6.58-.24-9.33-4.31" transform="translate(165.78 440.09)"/><path class="cls-23" d="M271.27-311.72s2.67,4.55,1.84,5.8-3,.5-3,.5" transform="translate(165.78 440.09)"/><path class="cls-21" d="M268-311.88a4.19,4.19,0,0,1,.1,1,.64.64,0,0,1-.64.64.76.76,0,0,1-.26-.06c-.79-.26-.64-2.12.34-2A.56.56,0,0,1,268-311.88Z" transform="translate(165.78 440.09)"/><path class="cls-21" d="M274.57-311.88a4.19,4.19,0,0,1,.1,1,.64.64,0,0,1-.65.63.69.69,0,0,1-.24-.05c-.79-.26-.65-2.12.33-2A.54.54,0,0,1,274.57-311.88Z" transform="translate(165.78 440.09)"/><path class="cls-12" d="M272.54-301.95l-6.75-1.93s-.27,5.15,3.81,5.91C272.09-297.5,272.54-301.95,272.54-301.95Z" transform="translate(165.78 440.09)"/><path class="cls-21" d="M268.55-314.37a10.36,10.36,0,0,0-3.84.81,1.1,1.1,0,0,1-.27-1.05,7.54,7.54,0,0,1,4-.95S268.8-314.53,268.55-314.37Z" transform="translate(165.78 440.09)"/><path class="cls-21" d="M272.17-314.44a5.06,5.06,0,0,1,2.62.76,1.22,1.22,0,0,0,.26-.92,3.66,3.66,0,0,0-2.72-.9S272-314.6,272.17-314.44Z" transform="translate(165.78 440.09)"/><path class="cls-23" d="M255.45-304.95s1.34,2,3.13,1.43" transform="translate(165.78 440.09)"/><line class="cls-56" x1="380.75" y1="220.63" x2="380.75" y2="225.25"/><line class="cls-56" x1="383.06" y1="222.94" x2="378.43" y2="222.94"/><line class="cls-56" x1="519.94" y1="194.76" x2="519.94" y2="199.38"/><line class="cls-56" x1="522.25" y1="197.07" x2="517.63" y2="197.07"/><line class="cls-56" x1="111.7" y1="92.6" x2="111.7" y2="97.22"/><line class="cls-56" x1="114.02" y1="94.91" x2="109.39" y2="94.91"/><line class="cls-56" x1="302.77" y1="4.06" x2="302.77" y2="8.69"/><line class="cls-56" x1="305.08" y1="6.38" x2="300.45" y2="6.38"/><path class="cls-56" d="M110.8-415.47a2.21,2.21,0,0,1-2.21,2.21,2.21,2.21,0,0,1-2.21-2.21,2.21,2.21,0,0,1,2.21-2.21h0A2.21,2.21,0,0,1,110.8-415.47Z" transform="translate(165.78 440.09)"/><path class="cls-56" d="M177.38-359.93a2.21,2.21,0,0,1-2.2,2.22,2.21,2.21,0,0,1-2.22-2.2,2.21,2.21,0,0,1,2.2-2.22h0A2.21,2.21,0,0,1,177.38-359.93Z" transform="translate(165.78 440.09)"/><circle class="cls-56" cx="466.7" cy="144.45" r="2.21"/><path class="cls-56" d="M-92.88-168.17A2.21,2.21,0,0,1-95.09-166a2.21,2.21,0,0,1-2.21-2.21,2.21,2.21,0,0,1,2.21-2.21h0A2.21,2.21,0,0,1-92.88-168.17Z" transform="translate(165.78 440.09)"/><circle class="cls-56" cx="160.68" cy="230.13" r="2.21"/><path class="cls-56" d="M-72.18-359.93a2.21,2.21,0,0,1-2.16,2.26,2.21,2.21,0,0,1-2.26-2.16,2.21,2.21,0,0,1,2.16-2.26h.08A2.2,2.2,0,0,1-72.18-359.93Z" transform="translate(165.78 440.09)"/><line class="cls-56" x1="98.41" y1="216.24" x2="123.35" y2="216.24"/><line class="cls-56" x1="130.94" y1="216.24" x2="142.07" y2="216.24"/><line class="cls-56" x1="464.87" y1="129.92" x2="489.8" y2="129.92"/><line class="cls-56" x1="497.4" y1="129.92" x2="508.53" y2="129.92"/><line class="cls-56" x1="354.42" y1="8.69" x2="379.35" y2="8.69"/><line class="cls-56" x1="386.95" y1="8.69" x2="398.08" y2="8.69"/><line class="cls-56" x1="227.29" y1="21.5" x2="210.36" y2="21.5"/><line class="cls-56" x1="204.76" y1="21.5" x2="195.63" y2="21.5"/><line class="cls-56" x1="160.24" y1="120.74" x2="139.3" y2="120.74"/><line class="cls-56" x1="135.71" y1="120.74" x2="128.58" y2="120.74"/><line class="cls-56" x1="150.32" y1="129.92" x2="168.55" y2="129.92"/><line class="cls-56" x1="503.4" y1="123.26" x2="521.63" y2="123.26"/><line class="cls-56" x1="336.88" y1="26.56" x2="355.11" y2="26.56"/><line class="cls-56" x1="532.51" y1="239.75" x2="550.73" y2="239.75"/><path class="cls-57" d="M-53.11-274.09a6.75,6.75,0,0,0-7.74-5.59,6.78,6.78,0,0,0-5,3.79,6.75,6.75,0,0,0-9-3.2,6.75,6.75,0,0,0-3.2,9,6.69,6.69,0,0,0,1.33,1.88l9.63,9.63a1.75,1.75,0,0,0,2.47,0l9.63-9.63A6.78,6.78,0,0,0-53.11-274.09Z" transform="translate(165.78 440.09)"/><line class="cls-56" x1="99.9" y1="147.36" x2="99.9" y2="151.15"/><line class="cls-56" x1="99.9" y1="188.03" x2="99.9" y2="191.82"/><line class="cls-56" x1="122.14" y1="169.59" x2="118.35" y2="169.59"/><line class="cls-56" x1="81.46" y1="169.59" x2="77.67" y2="169.59"/><line class="cls-56" x1="84.18" y1="153.87" x2="86.86" y2="156.55"/><line class="cls-56" x1="112.94" y1="182.63" x2="115.62" y2="185.31"/><line class="cls-56" x1="115.62" y1="153.87" x2="112.94" y2="156.55"/><line class="cls-56" x1="86.86" y1="182.63" x2="84.18" y2="185.31"/><line class="cls-56" x1="91.4" y1="149.05" x2="92.85" y2="152.55"/><line class="cls-56" x1="106.96" y1="186.63" x2="108.41" y2="190.13"/><line class="cls-56" x1="120.44" y1="161.08" x2="116.94" y2="162.53"/><line class="cls-56" x1="82.87" y1="176.64" x2="79.36" y2="178.1"/><line class="cls-56" x1="79.36" y1="161.08" x2="82.87" y2="162.53"/><line class="cls-56" x1="116.94" y1="176.64" x2="120.44" y2="178.1"/><line class="cls-56" x1="108.41" y1="149.05" x2="106.96" y2="152.55"/><line class="cls-56" x1="92.85" y1="186.63" x2="91.4" y2="190.13"/><path class="cls-57" d="M350.38-211.38a6.75,6.75,0,0,0-7.77-5.54,6.73,6.73,0,0,0-5,3.73,6.75,6.75,0,0,0-9-3.17,6.73,6.73,0,0,0-3.17,9,6.45,6.45,0,0,0,1.3,1.85l9.63,9.63a1.75,1.75,0,0,0,2.46,0l0,0,9.63-9.63A6.75,6.75,0,0,0,350.38-211.38Z" transform="translate(165.78 440.09)"/><line class="cls-56" x1="503.4" y1="210.1" x2="503.4" y2="213.89"/><line class="cls-56" x1="503.4" y1="250.77" x2="503.4" y2="254.56"/><line class="cls-56" x1="525.63" y1="232.33" x2="521.84" y2="232.33"/><line class="cls-56" x1="484.96" y1="232.33" x2="481.17" y2="232.33"/><line class="cls-56" x1="487.68" y1="216.61" x2="490.36" y2="219.29"/><line class="cls-56" x1="516.44" y1="245.37" x2="519.12" y2="248.05"/><line class="cls-56" x1="519.12" y1="216.61" x2="516.44" y2="219.29"/><line class="cls-56" x1="490.36" y1="245.37" x2="487.68" y2="248.05"/><line class="cls-56" x1="494.89" y1="211.79" x2="496.34" y2="215.3"/><line class="cls-56" x1="510.46" y1="249.37" x2="511.91" y2="252.87"/><line class="cls-56" x1="523.94" y1="223.83" x2="520.44" y2="225.28"/><line class="cls-56" x1="486.36" y1="239.39" x2="482.86" y2="240.84"/><line class="cls-56" x1="482.86" y1="223.83" x2="486.36" y2="225.28"/><line class="cls-56" x1="520.44" y1="239.39" x2="523.94" y2="240.84"/><line class="cls-56" x1="511.91" y1="211.79" x2="510.46" y2="215.3"/><line class="cls-56" x1="496.34" y1="249.37" x2="494.89" y2="252.87"/><path class="cls-57" d="M280-404.32a4.45,4.45,0,0,0-5.11-3.67,4.46,4.46,0,0,0-3.3,2.48,4.46,4.46,0,0,0-5.93-2.12,4.45,4.45,0,0,0-2.11,5.93,4.56,4.56,0,0,0,.88,1.25l6.34,6.36a1.16,1.16,0,0,0,1.64,0l6.34-6.35A4.43,4.43,0,0,0,280-404.32Z" transform="translate(165.78 440.09)"/><line class="cls-56" x1="437.33" y1="23.5" x2="437.33" y2="26"/><line class="cls-56" x1="437.33" y1="50.31" x2="437.33" y2="52.81"/><line class="cls-56" x1="451.98" y1="38.16" x2="449.49" y2="38.16"/><line class="cls-56" x1="425.18" y1="38.16" x2="422.68" y2="38.16"/><line class="cls-56" x1="426.97" y1="27.8" x2="428.74" y2="29.56"/><line class="cls-56" x1="445.92" y1="46.75" x2="447.69" y2="48.52"/><line class="cls-56" x1="447.69" y1="27.8" x2="445.92" y2="29.56"/><line class="cls-56" x1="428.74" y1="46.75" x2="426.97" y2="48.52"/><line class="cls-56" x1="431.72" y1="24.62" x2="432.68" y2="26.93"/><line class="cls-56" x1="441.98" y1="49.39" x2="442.94" y2="51.69"/><line class="cls-56" x1="450.87" y1="32.55" x2="448.56" y2="33.51"/><line class="cls-56" x1="426.1" y1="42.81" x2="423.79" y2="43.76"/><line class="cls-56" x1="423.79" y1="32.55" x2="426.1" y2="33.51"/><line class="cls-56" x1="448.56" y1="42.81" x2="450.87" y2="43.76"/><line class="cls-56" x1="442.94" y1="24.62" x2="441.98" y2="26.93"/><line class="cls-56" x1="432.68" y1="49.39" x2="431.72" y2="51.69"/><circle class="cls-58" cx="255.19" cy="277.24" r="14.3"/><path class="cls-59" d="M105.12-157.38a2.34,2.34,0,0,0-1.52-2.94,2.36,2.36,0,0,0-2.13.37,2.35,2.35,0,0,0-2.26-2.42,2.36,2.36,0,0,0-2,1,2.4,2.4,0,0,0-.35,2.11l1.45,4.49a.61.61,0,0,0,.76.4l4.49-1.45A2.34,2.34,0,0,0,105.12-157.38Z" transform="translate(165.78 440.09)"/><ellipse class="cls-54" cx="250.24" cy="277.24" rx="1.32" ry="2.18"/><path class="cls-54" d="M81-166.34a.54.54,0,0,1-.21,0,.49.49,0,0,1-.24-.66h0a5.82,5.82,0,0,1,5.24-3.09.5.5,0,0,1,.5.5.5.5,0,0,1-.5.5,4.86,4.86,0,0,0-4.34,2.52A.49.49,0,0,1,81-166.34Z" transform="translate(165.78 440.09)"/><path class="cls-54" d="M98.52-165.52a.49.49,0,0,1-.38-.18A4.83,4.83,0,0,0,93.28-167a.48.48,0,0,1-.6-.32v0a.49.49,0,0,1,.33-.61h0a5.83,5.83,0,0,1,5.88,1.58.51.51,0,0,1,0,.71A.47.47,0,0,1,98.52-165.52Z" transform="translate(165.78 440.09)"/><path class="cls-54" d="M93.33-162.35a.43.43,0,0,1-.29-.1.51.51,0,0,1-.11-.7h0a3.36,3.36,0,0,1,4.64-.75.49.49,0,0,1,.16.67v0a.5.5,0,0,1-.69.15,2.37,2.37,0,0,0-3.29.51A.51.51,0,0,1,93.33-162.35Z" transform="translate(165.78 440.09)"/><path class="cls-54" d="M90-153.09a.49.49,0,0,1-.39-.19.49.49,0,0,1,.07-.69h0l1.45-1.15-.92-.4a.49.49,0,0,1-.29-.36.51.51,0,0,1,.14-.45l.92-.91-1.72-.67a.5.5,0,0,1-.22-.67.5.5,0,0,1,.57-.26l2.46.95a.51.51,0,0,1,.31.36.52.52,0,0,1-.14.46l-1,.93,1,.43a.49.49,0,0,1,.29.39.49.49,0,0,1-.18.46l-2.11,1.67A.46.46,0,0,1,90-153.09Z" transform="translate(165.78 440.09)"/><circle class="cls-58" cx="345.56" cy="167.1" r="18.2"/><path class="cls-54" d="M179.78-262.57a4.77,4.77,0,0,1-4.77-3.68.73.73,0,0,1,.56-.86.72.72,0,0,1,.86.55h0a3.49,3.49,0,0,0,4.33,2.37,3.48,3.48,0,0,0,2.37-2.37.72.72,0,0,1,.85-.56h0a.72.72,0,0,1,.55.86h0A4.76,4.76,0,0,1,179.78-262.57Z" transform="translate(165.78 440.09)"/><path class="cls-54" d="M168.84-277.09a.72.72,0,0,1-.74-.7.74.74,0,0,1,.31-.61c1.55-1.14,5.39-2.62,8.69,0a.72.72,0,0,1,.13,1,.73.73,0,0,1-1,.12c-3.26-2.55-6.8-.05-6.95.06A.69.69,0,0,1,168.84-277.09Z" transform="translate(165.78 440.09)"/><path class="cls-54" d="M175.43-272.26a.7.7,0,0,1-.58-.3,3,3,0,0,0-4.08-.62.72.72,0,0,1-1-.31.73.73,0,0,1,.19-.91,4.36,4.36,0,0,1,6,1,.74.74,0,0,1-.16,1A.77.77,0,0,1,175.43-272.26Z" transform="translate(165.78 440.09)"/><path class="cls-54" d="M190.72-277.09a.71.71,0,0,1-.43-.14c-.15-.11-3.68-2.61-6.94-.06a.73.73,0,0,1-1,0,.73.73,0,0,1,0-1l.12-.09c3.31-2.59,7.14-1.11,8.7,0a.74.74,0,0,1,.16,1A.72.72,0,0,1,190.72-277.09Z" transform="translate(165.78 440.09)"/><path class="cls-54" d="M184.12-272.26a.76.76,0,0,1-.43-.14.73.73,0,0,1-.15-1,4.35,4.35,0,0,1,6-1,.74.74,0,0,1,.22,1,.74.74,0,0,1-1,.22,2.94,2.94,0,0,0-4.07.62A.68.68,0,0,1,184.12-272.26Z" transform="translate(165.78 440.09)"/><path class="cls-60" d="M73.84-390.24H-9.49a25.88,25.88,0,0,0-25.87,25.88h0A25.88,25.88,0,0,0-9.48-338.48H-2l4.66,6,4.66-6H73.84a25.88,25.88,0,0,0,25.88-25.88h0a25.88,25.88,0,0,0-25.88-25.88Z" transform="translate(165.78 440.09)"/><circle class="cls-61" cx="154.66" cy="75.73" r="16.01"/><circle class="cls-57" cx="154.65" cy="75.73" r="12.32"/><g class="cls-62"><path class="cls-21" d="M-16-372.16c2.52-2.3,7.37-2.86,9.31-.07.86,1.25,1,3,2.18,4a5.72,5.72,0,0,1,1.14,1,2.71,2.71,0,0,1-.07,2.45,4,4,0,0,0-.46,2.47c.17.58.64,1.09.56,1.69-.12.8-1.1,1.07-1.88,1.13a12.44,12.44,0,0,1-1.93,0,28.74,28.74,0,0,0-2.93-.27,22.2,22.2,0,0,0-3.53.77,9,9,0,0,1-3.86,0c-.75-.17-1.62-.59-1.69-1.39-.06-.54.3-1,.31-1.59,0-.92-.89-1.65-.89-2.57,0-1.08,1.18-1.71,1.69-2.64a13.94,13.94,0,0,0,.65-2.77A4.71,4.71,0,0,1-16-372.16Z" transform="translate(165.78 440.09)"/><path class="cls-34" d="M-24.36-353.26a14.31,14.31,0,0,1,10.13-4.55l6-.1s5.33.7,8.53,3.33c9.58,7.85,8,21.64,8,21.64s-38.88-8.42-38.93-8.69S-27-350.15-24.36-353.26Z" transform="translate(165.78 440.09)"/><path class="cls-22" d="M-7.53-369.26c1.21,4.88-1,8.52-2.88,8.81-2.7.4-4.2-.92-5-3.33-.35-1.06-.87-5.08.25-6.26C-13.29-372-8.56-373.42-7.53-369.26Z" transform="translate(165.78 440.09)"/><path class="cls-22" d="M-13.89-362.73l-.28,4.49s-.63,2.41,3.07,2.41,2.8-2.41,2.8-2.41l-.61-5" transform="translate(165.78 440.09)"/><path class="cls-22" d="M-15.22-365.58a.83.83,0,0,0-1-.09.93.93,0,0,0-.33.75,1.74,1.74,0,0,0,.1.78,1.14,1.14,0,0,0,.61.59,1,1,0,0,0,.88-.11" transform="translate(165.78 440.09)"/><path class="cls-22" d="M-7.69-365.58a.83.83,0,0,1,1-.09,1,1,0,0,1,.33.75,1.74,1.74,0,0,1-.11.78,1.09,1.09,0,0,1-.6.59,1,1,0,0,1-.89-.11" transform="translate(165.78 440.09)"/><path class="cls-21" d="M-16.68-366.21a9.93,9.93,0,0,0,5.82-3.71,11.22,11.22,0,0,0,4.6,3.36,6.43,6.43,0,0,0-.24-3.58A6.3,6.3,0,0,0-8.13-372a6.13,6.13,0,0,0-1.78-1.2,4.38,4.38,0,0,0-3.91.72,7,7,0,0,0-2.95,4.85" transform="translate(165.78 440.09)"/><path class="cls-21" d="M-10.21-373.47c-.13.08-.28,0-.37-.15-.37-.42-.76-1-.59-1.5a1.21,1.21,0,0,1,.48-.59,1.84,1.84,0,0,1,1.74-.22,1.45,1.45,0,0,1,.87,1.46,1.19,1.19,0,0,1-1.29,1" transform="translate(165.78 440.09)"/><path class="cls-63" d="M-13.76-361.09a3.17,3.17,0,0,0,2.19,1.19A2.79,2.79,0,0,0-9-361.44" transform="translate(165.78 440.09)"/><path class="cls-63" d="M-11.11-363.16s-.81.17-.81-.33.26-2.72.26-2.72" transform="translate(165.78 440.09)"/><path class="cls-21" d="M-9.67-365.82v.61a.54.54,0,0,0,.07.13.27.27,0,0,0,.11.1h.36a.2.2,0,0,0,.12-.08.36.36,0,0,0,.12-.28,1.57,1.57,0,0,0,0-.3v-.28A.28.28,0,0,0-9-366h-.38a.28.28,0,0,0-.1.09.24.24,0,0,0-.06.11Z" transform="translate(165.78 440.09)"/><path class="cls-64" d="M-10-366.8a1.49,1.49,0,0,1,1.64.13" transform="translate(165.78 440.09)"/><path class="cls-21" d="M-14-365.82v.2a1.5,1.5,0,0,0,0,.3.43.43,0,0,0,0,.16.27.27,0,0,0,.09.12l.08.06h.39l.08-.06a.27.27,0,0,0,.1-.17.67.67,0,0,0,0-.2v-.49a.28.28,0,0,0-.09-.1h-.38a.2.2,0,0,0-.09.09.19.19,0,0,0-.07.11Z" transform="translate(165.78 440.09)"/><path class="cls-64" d="M-12.94-366.8a1.49,1.49,0,0,0-1.64.13" transform="translate(165.78 440.09)"/><path class="cls-12" d="M-12.68-362.48H-10s-.33,1.39-1.33,1.39S-12.68-362.48-12.68-362.48Z" transform="translate(165.78 440.09)"/></g><line class="cls-65" x1="176.61" y1="62.42" x2="248.94" y2="62.42"/><line class="cls-65" x1="176.61" y1="71.29" x2="248.94" y2="71.29"/><line class="cls-65" x1="234.48" y1="80.16" x2="248.94" y2="80.16"/><line class="cls-65" x1="176.61" y1="80.16" x2="226.25" y2="80.16"/><line class="cls-65" x1="176.61" y1="89.03" x2="214.88" y2="89.03"/><path class="cls-60" d="M136.5-355.09h83.34a25.88,25.88,0,0,1,25.88,25.88h0a25.88,25.88,0,0,1-25.84,25.92h-3.59l-4.66,6-4.66-6H136.5a25.87,25.87,0,0,1-25.86-25.88h0a25.88,25.88,0,0,1,25.84-25.92Z" transform="translate(165.78 440.09)"/><circle class="cls-61" cx="387.24" cy="110.92" r="16.01"/><circle class="cls-57" cx="221.46" cy="-329.14" r="12.32" transform="translate(247.76 482.33) rotate(-13.35)"/><g class="cls-66"><path class="cls-34" d="M234.64-318.09a14.27,14.27,0,0,0-10.12-4.55l-6-.1s-5.33.7-8.53,3.33c-9.59,7.85-8,21.64-8,21.64s38.88-8.42,38.94-8.69S237.39-315,234.64-318.09Z" transform="translate(165.78 440.09)"/><path class="cls-22" d="M217.48-334.09c-1.21,4.88,1,8.53,2.88,8.81,2.69.41,4.2-.92,5-3.32.35-1.07.87-5.09-.25-6.27C223.24-336.81,218.51-338.23,217.48-334.09Z" transform="translate(165.78 440.09)"/><path class="cls-22" d="M224.74-327.61l.07,4.49s.71,2.41-3.47,2.41-3.16-2.41-3.16-2.41l.07-5" transform="translate(165.78 440.09)"/><path class="cls-22" d="M225.24-330.38a.83.83,0,0,1,1-.1,1,1,0,0,1,.33.76,1.74,1.74,0,0,1-.1.78,1.08,1.08,0,0,1-.61.58.9.9,0,0,1-.88-.11" transform="translate(165.78 440.09)"/><path class="cls-63" d="M224.54-325.87a4.17,4.17,0,0,1-2.72,1.2,3.55,3.55,0,0,1-3.24-1.54" transform="translate(165.78 440.09)"/><path class="cls-63" d="M221.09-328.89s.81.16.81-.29-.26-2.4-.26-2.4" transform="translate(165.78 440.09)"/><path class="cls-21" d="M219-331.19v.2a1.57,1.57,0,0,0-.05.3.19.19,0,0,0,0,.15.22.22,0,0,0,.08.13l.08.06a.33.33,0,0,0,.14,0,.21.21,0,0,0,.11,0,.38.38,0,0,0,.15,0l.08-.06a.59.59,0,0,0,.1-.17v-.69a.39.39,0,0,0-.08-.1h-.39a.24.24,0,0,0-.09.08.34.34,0,0,0-.06.12Z" transform="translate(165.78 440.09)"/><path class="cls-21" d="M223.27-331.19v.61a.21.21,0,0,0,.07.13.18.18,0,0,0,.11.1h.09a.22.22,0,0,0,.16,0,.17.17,0,0,0,.1,0,.2.2,0,0,0,.12-.08.42.42,0,0,0,.12-.28,1.5,1.5,0,0,0,0-.3v-.28a.28.28,0,0,0-.09-.1h-.38a.39.39,0,0,0-.1.08.34.34,0,0,0-.06.12Z" transform="translate(165.78 440.09)"/><path class="cls-12" d="M223.39-327.53H220a1.61,1.61,0,0,0,1.71,1.37A1.56,1.56,0,0,0,223.39-327.53Z" transform="translate(165.78 440.09)"/><path class="cls-21" d="M217.19-329.91a5.85,5.85,0,0,0,1.41-3.9,9.45,9.45,0,0,0,5,.33,6.54,6.54,0,0,0,2.9-1.21c.77-.67,1.07-2.88.35-3.63s-2-.31-2.94.25a2.49,2.49,0,0,0-1.93-1.37,2.43,2.43,0,0,0-2.12,1,1.28,1.28,0,0,1-.48.5,1.2,1.2,0,0,1-.77-.07c-1.42-.31-2.75,1.94-3,3.53a9.3,9.3,0,0,0,.84,4.68c.09.23.31.5.48.34" transform="translate(165.78 440.09)"/><path class="cls-21" d="M225.81-335.56a5.34,5.34,0,0,1,.34,5.77c0,.07-.08.14-.15.16a.28.28,0,0,1-.26-.09,1.73,1.73,0,0,1-.52-1.13,10.93,10.93,0,0,1,0-1.28,5.06,5.06,0,0,0-1.06-2.81" transform="translate(165.78 440.09)"/><path class="cls-22" d="M217.64-330.38a.83.83,0,0,0-1-.1,1,1,0,0,0-.33.76,1.74,1.74,0,0,0,.11.78,1,1,0,0,0,.6.58.94.94,0,0,0,.89-.11" transform="translate(165.78 440.09)"/></g><line class="cls-65" x1="365.3" y1="97.62" x2="292.97" y2="97.62"/><line class="cls-65" x1="346" y1="106.49" x2="292.97" y2="106.49"/><line class="cls-65" x1="365.3" y1="106.49" x2="352.91" y2="106.49"/><line class="cls-65" x1="314.92" y1="115.36" x2="292.97" y2="115.36"/><line class="cls-65" x1="365.3" y1="115.36" x2="323.15" y2="115.36"/><line class="cls-65" x1="338.7" y1="124.23" x2="292.97" y2="124.23"/><path class="cls-57" d="M98.82-316.6h-32a9.3,9.3,0,0,0-9.3,9.3h0a9.3,9.3,0,0,0,9.3,9.3h2.67l1.68,2.16L72.84-298H98.78a9.3,9.3,0,0,0,9.3-9.3h0A9.3,9.3,0,0,0,98.82-316.6Z" transform="translate(165.78 440.09)"/><path class="cls-12" d="M73.88-309.7A2.84,2.84,0,0,0,70.62-312a2.85,2.85,0,0,0-2.11,1.59,2.85,2.85,0,0,0-3.8-1.34,2.84,2.84,0,0,0-1.58,2.1,2.88,2.88,0,0,0,.8,2.48l4,4a.74.74,0,0,0,1,0h0l4-4A2.89,2.89,0,0,0,73.88-309.7Z" transform="translate(165.78 440.09)"/><path class="cls-12" d="M88.21-309.7A2.84,2.84,0,0,0,85-312a2.85,2.85,0,0,0-2.11,1.59,2.84,2.84,0,0,0-3.79-1.32A2.82,2.82,0,0,0,77.73-308a2.61,2.61,0,0,0,.54.77l4,4a.74.74,0,0,0,1,0l4-4A2.85,2.85,0,0,0,88.21-309.7Z" transform="translate(165.78 440.09)"/><path class="cls-12" d="M102.54-309.7A2.84,2.84,0,0,0,99.28-312a2.85,2.85,0,0,0-2.11,1.59A2.84,2.84,0,0,0,94.11-312a2.85,2.85,0,0,0-2.3,3.31,2.84,2.84,0,0,0,.79,1.51l4.05,4a.74.74,0,0,0,1,0l4.06-4A2.86,2.86,0,0,0,102.54-309.7Z" transform="translate(165.78 440.09)"/><path class="cls-57" d="M189.08-174.09h32a9.3,9.3,0,0,0,9.3-9.3h0a9.3,9.3,0,0,0-9.3-9.3h-2.67l-1.68-2.17-1.67,2.17h-26a9.3,9.3,0,0,0-9.3,9.3h0a9.3,9.3,0,0,0,9.29,9.31Z" transform="translate(165.78 440.09)"/><path class="cls-12" d="M196.1-185.48a2.84,2.84,0,0,0-3.26-2.35,2.85,2.85,0,0,0-2.11,1.59,2.84,2.84,0,0,0-3.79-1.37,2.84,2.84,0,0,0-1.37,3.79,2.91,2.91,0,0,0,.58.82l4.06,4.05a.74.74,0,0,0,1,0l4-4.05A2.84,2.84,0,0,0,196.1-185.48Z" transform="translate(165.78 440.09)"/><path class="cls-12" d="M210.43-185.48a2.84,2.84,0,0,0-3.26-2.35,2.85,2.85,0,0,0-2.11,1.59,2.84,2.84,0,0,0-3.79-1.32,2.82,2.82,0,0,0-1.32,3.79,2.61,2.61,0,0,0,.54.77l4,4.05a.74.74,0,0,0,1,0l4-4.05A2.85,2.85,0,0,0,210.43-185.48Z" transform="translate(165.78 440.09)"/><path class="cls-12" d="M224.77-185.48a2.85,2.85,0,0,0-3.28-2.34,2.85,2.85,0,0,0-2.1,1.58,2.83,2.83,0,0,0-3.06-1.58,2.85,2.85,0,0,0-2.3,3.31,2.84,2.84,0,0,0,.79,1.51l4.05,4.05a.74.74,0,0,0,1,0l4.06-4.05A2.89,2.89,0,0,0,224.77-185.48Z" transform="translate(165.78 440.09)"/><path class="cls-60" d="M341.53-354.72H301.14A11.76,11.76,0,0,0,289.39-343h0a11.75,11.75,0,0,0,11.74,11.76h3.39l2.12,2.73,2.11-2.73h32.78a11.75,11.75,0,0,0,11.76-11.74v0h0a11.77,11.77,0,0,0-11.76-11.76Z" transform="translate(165.78 440.09)"/><circle class="cls-29" cx="302.22" cy="-343.08" r="7.92" transform="translate(496.89 553.3) rotate(-45)"/><path class="cls-59" d="M308-344.46a1.29,1.29,0,0,0-.45-1.43,1.28,1.28,0,0,0-1.57,0,1.31,1.31,0,0,0-1.24-1.36,1.31,1.31,0,0,0-1.36,1.25,1.49,1.49,0,0,0,.07.47l.8,2.49a.33.33,0,0,0,.42.21h0l2.49-.79A1.4,1.4,0,0,0,308-344.46Z" transform="translate(165.78 440.09)"/><path class="cls-59" d="M296.23-344.46a6,6,0,0,0,2.93-2.71,1.3,1.3,0,0,1,1.42.47,1.23,1.23,0,0,1,.19,1.17L300-343a.33.33,0,0,1-.43.21l-2.48-.79A1.3,1.3,0,0,1,296.23-344.46Z" transform="translate(165.78 440.09)"/><path class="cls-12" d="M306.31-341.41a4.09,4.09,0,0,1-3.88,4.29,4.09,4.09,0,0,1-4.29-3.89,2.67,2.67,0,0,1,0-.4Z" transform="translate(165.78 440.09)"/><circle class="cls-29" cx="321.55" cy="-343.08" r="7.92" transform="translate(774.32 469.48) rotate(-80.76)"/><path class="cls-59" d="M327.33-344.46a6,6,0,0,1-2.93-2.71,1.3,1.3,0,0,0-1.42.47,1.29,1.29,0,0,0-.2,1.17l.8,2.49a.33.33,0,0,0,.43.21l2.48-.79A1.3,1.3,0,0,0,327.33-344.46Z" transform="translate(165.78 440.09)"/><path class="cls-59" d="M315.56-344.46a1.29,1.29,0,0,1,.45-1.43,1.28,1.28,0,0,1,1.57,0,1.31,1.31,0,0,1,1.24-1.36,1.31,1.31,0,0,1,1.36,1.25,1.49,1.49,0,0,1-.07.47l-.8,2.49a.33.33,0,0,1-.42.21h0l-2.49-.79A1.4,1.4,0,0,1,315.56-344.46Z" transform="translate(165.78 440.09)"/><path class="cls-12" d="M325.64-341.41a4.09,4.09,0,0,1-3.88,4.29,4.09,4.09,0,0,1-4.29-3.89,2.67,2.67,0,0,1,0-.4Z" transform="translate(165.78 440.09)"/><circle class="cls-29" cx="340.9" cy="-343.07" r="7.92" transform="translate(761.91 507.84) rotate(-76.67)"/><path class="cls-59" d="M346.64-344.46a6,6,0,0,1-2.93-2.71,1.29,1.29,0,0,0-1.62.86,1.3,1.3,0,0,0,0,.78l.8,2.49a.34.34,0,0,0,.42.21l2.49-.79A1.3,1.3,0,0,0,346.64-344.46Z" transform="translate(165.78 440.09)"/><path class="cls-59" d="M334.9-344.46a6,6,0,0,0,2.93-2.71,1.29,1.29,0,0,1,1.62.86,1.3,1.3,0,0,1,0,.78l-.8,2.49a.34.34,0,0,1-.42.21l-2.49-.79A1.3,1.3,0,0,1,334.9-344.46Z" transform="translate(165.78 440.09)"/><path class="cls-12" d="M345-341.41a4.09,4.09,0,0,1-3.88,4.29,4.09,4.09,0,0,1-4.29-3.89,2.67,2.67,0,0,1,0-.4Z" transform="translate(165.78 440.09)"/></g></svg>